<?xml version="1.0" standalone="no"?>
<!DOCTYPE svg PUBLIC "-//W3C//DTD SVG 20010904//EN"
 "http://www.w3.org/TR/2001/REC-SVG-20010904/DTD/svg10.dtd">
<svg version="1.0" xmlns="http://www.w3.org/2000/svg"
 width="184.000000pt" height="140.000000pt" viewBox="0 0 184.000000 140.000000"
 preserveAspectRatio="xMidYMid meet">
<metadata>
Created by potrace 1.15, written by Peter Selinger 2001-2017
</metadata>
<g transform="translate(0.000000,140.000000) scale(0.100000,-0.100000)"
fill="#000000" stroke="none">
<path d="M932 303 l3 -158 120 0 120 0 0 25 c0 25 -2 25 -87 28 l-88 3 0 44 0
45 80 0 c79 0 80 0 80 25 0 25 -1 25 -80 25 l-80 0 0 35 0 35 85 0 c84 0 85 0
85 25 l0 25 -120 0 -121 0 3 -157z"/>
<path d="M1301 442 c-48 -24 -73 -62 -79 -120 -12 -129 81 -210 192 -168 30
12 49 27 62 51 20 38 19 41 -16 49 -21 5 -28 1 -42 -24 -15 -25 -23 -30 -57
-30 -52 0 -81 34 -81 96 0 54 15 89 47 103 36 17 52 14 82 -16 19 -20 35 -27
54 -25 32 4 32 4 11 43 -28 55 -110 74 -173 41z"/>
<path d="M1610 447 c-24 -8 -41 -23 -53 -47 l-17 -35 27 -5 c22 -5 31 -1 41
18 20 35 66 27 70 -12 3 -24 -6 -39 -51 -85 -64 -66 -87 -99 -87 -123 0 -16
11 -18 100 -18 l100 0 0 30 c0 30 -1 30 -55 30 -30 0 -55 4 -55 9 0 5 18 24
40 41 48 38 70 77 70 123 0 35 -30 77 -55 77 -7 0 -19 2 -27 4 -7 3 -29 0 -48
-7z"/>
</g>
</svg>
